<?xml version="1.0" encoding="UTF-8"?>
<!DOCTYPE svg PUBLIC "-//W3C//DTD SVG 1.1//EN" "http://www.w3.org/Graphics/SVG/1.1/DTD/svg11.dtd">
<!-- Creator: CorelDRAW X7 -->
<svg xmlns="http://www.w3.org/2000/svg" xml:space="preserve" width="802.072mm" height="843.144mm" version="1.1" style="shape-rendering:geometricPrecision; text-rendering:geometricPrecision; image-rendering:optimizeQuality; fill-rule:evenodd; clip-rule:evenodd"
viewBox="0 0 8891 9346"
 xmlns:xlink="http://www.w3.org/1999/xlink">
 <defs>
  <style type="text/css">
   <![CDATA[
    .str1 {stroke:#2B2A29;stroke-width:2.21702}
    .str0 {stroke:#351A5E;stroke-width:0.844684}
    .fil1 {fill:#FEFEFE}
    .fil0 {fill:#351A5E}
   ]]>
  </style>
 </defs>
 <g id="Layer_x0020_1">
  <metadata id="CorelCorpID_0Corel-Layer"/>
  <g id="_1098510432">
   <g>
    <polygon class="fil0 str0" points="8571,2265 7326,4197 7326,2340 8571,408 "/>
    <polygon class="fil0 str0" points="5164,6079 3919,8011 3727,8011 4972,6079 "/>
    <polygon class="fil0 str0" points="8571,408 7326,2340 4068,2340 5313,408 "/>
    <polygon class="fil0 str0" points="4845,5639 3599,7572 3599,4230 4845,2298 "/>
    <path class="fil0 str0" d="M1558 9345l0 0zm1246 -1932l0 0z"/>
    <polygon class="fil0 str0" points="2804,7413 1558,9345 1244,8011 2489,6079 "/>
    <polygon class="fil0 str0" points="2489,6079 1244,8011 1,8011 1246,6079 "/>
    <polygon class="fil0 str0" points="4845,408 3599,2340 341,2340 1587,408 "/>
    <polygon class="fil0 str0" points="7724,5639 6479,7572 6378,4048 7623,2116 "/>
    <polygon class="fil0 str0" points="8890,6079 7645,8011 3919,8011 5164,6079 "/>
    <polygon class="fil0 str0" points="3757,6079 2512,8011 1558,9345 2804,7413 "/>
    <polygon class="fil0 str0" points="4972,6079 3727,8011 2512,8011 3757,6079 "/>
    <polygon class="fil0 str0" points="4845,1884 3599,3816 3599,2340 4845,408 "/>
    <polygon class="fil0 str0" points="2752,2132 1507,4065 1507,3650 2752,1718 "/>
    <polygon class="fil0 str0" points="4845,2298 3599,4230 1507,4065 2752,2132 "/>
    <polygon class="fil0 str0" points="3673,4122 2428,6054 341,5897 1587,3965 "/>
    <polygon class="fil0 str0" points="1246,6079 1,8011 1,1934 1246,1 "/>
   </g>
   <rect class="fil0 str1" x="1497" y="193" width="7236" height="5575"/>
   <path class="fil1" d="M1246 1l3726 0 192 0 3726 0 0 6078 -3726 0 -192 0 -1215 0 -953 1334 0 0 -315 -1334 -1243 0 0 -6078zm4067 2264l948 -149 -102 3523 1565 0 -101 -3523 948 149 0 -1857 -3258 0 0 1857zm-468 3374l0 -3341 -2093 -166 0 -414 2093 166 0 -1476 -3258 0 0 3142 2086 158 0 414 -2086 -157 0 1674 3258 0z"/>
  </g>
 </g>
</svg>
